PathFileType  4	(X/Y/Z) C:\Users\antoi\Documents\MyRepositories\mobilecap\ResultsAnalysis
DataRate	CameraRate	NumFrames	NumMarkers	Units	OrigDataRate	OrigDataStartFrame	OrigNumFrames
100.0	100.0	4	51	mm	100.0	97	257
Frame#	Time	r_knee			r_shank_antsup			r_ankle			r_calc			r_5meta			r_toe			L_knee			L_shank_antsup			L_ankle			L_calc			L_5meta			L_toe			r_sh2			r_sh3			r_sh4			L_sh2			L_sh3			r_thigh1			r_thigh2			r_thigh3			r_thigh4			r_thigh5			L_thigh1			L_thigh2			L_thigh3			L_thigh4			r.ASIS			r.PSIS			L.ASIS			L.PSIS			C7			R_Shoulder			L_Shoulder			R_Sternum			L_Sternum			R_humerus			R_elbow_med			R_elbow_lat			R_forearm			R_wrist_radius			R_wrist_ulna			L_humerus			L_elbow_med			L_elbow_lat			L_forearm			L_wrist_radius			L_wrist_ulna			R_HJC			L_HJC			R_HJC_reg			L_HJC_reg			
		X1	Y1	Z1	X2	Y2	Z2	X3	Y3	Z3	X4	Y4	Z4	X5	Y5	Z5	X6	Y6	Z6	X7	Y7	Z7	X8	Y8	Z8	X9	Y9	Z9	X10	Y10	Z10	X11	Y11	Z11	X12	Y12	Z12	X13	Y13	Z13	X14	Y14	Z14	X15	Y15	Z15	X16	Y16	Z16	X17	Y17	Z17	X18	Y18	Z18	X19	Y19	Z19	X20	Y20	Z20	X21	Y21	Z21	X22	Y22	Z22	X23	Y23	Z23	X24	Y24	Z24	X25	Y25	Z25	X26	Y26	Z26	X27	Y27	Z27	X28	Y28	Z28	X29	Y29	Z29	X30	Y30	Z30	X31	Y31	Z31	X32	Y32	Z32	X33	Y33	Z33	X34	Y34	Z34	X35	Y35	Z35	X36	Y36	Z36	X37	Y37	Z37	X38	Y38	Z38	X39	Y39	Z39	X40	Y40	Z40	X41	Y41	Z41	X42	Y42	Z42	X43	Y43	Z43	X44	Y44	Z44	X45	Y45	Z45	X46	Y46	Z46	X47	Y47	Z47	X48	Y48	Z48	X49	Y49	Z49	X50	Y50	Z50	X51	Y51	Z51	

97	0.96000000	-678.45731	1026.05660	-373.96579	-725.35304	886.44052	-366.82961	-1001.43559	641.11454	-353.00533	-1054.53702	673.88906	-414.31383	-970.61276	491.50168	-338.08613	-920.55398	486.51989	-385.93992	-671.00636	1032.80719	-773.94146	-740.91601	851.40474	-764.49376	-1003.33098	693.13370	-762.30061	-1048.31302	724.85162	-692.09017	-1022.35431	531.13191	-800.63209	-967.24418	504.86322	-750.64581	-797.02528	797.86264	-365.72694	-777.73926	926.80486	-331.45432	-849.45467	843.48220	-319.85600	-789.72640	909.19825	-809.73553	-876.22032	829.45270	-795.61066	-730.90405	1311.96962	-366.62454	-678.41309	1212.80138	-361.01898	-725.87484	1163.46846	-351.40204	-829.41673	1262.05361	-390.70000	-776.26990	1156.04708	-375.45171	-703.05157	1325.18053	-766.57632	-650.73544	1200.65104	-774.54481	-805.94895	1289.11819	-782.23516	-750.67333	1162.50082	-796.55140	-743.16027	1560.65648	-445.94412	-917.90204	1616.61785	-531.29660	-752.21927	1547.38219	-711.77386	-918.93095	1615.47169	-623.77489	-714.70469	2070.12012	-605.47946	-647.01421	2032.30426	-450.56257	-654.74472	2032.96062	-758.26619	-601.47427	1955.42724	-571.72173	-600.14144	1952.42537	-626.70632	-721.44171	1874.93076	-251.99492	-854.09625	1785.13445	-204.42884	-811.78154	1849.45545	-157.64629	-630.83583	1739.57160	-183.82186	-558.83440	1693.54668	-206.24914	-564.29125	1682.70644	-170.00903	-678.63232	1828.96917	-948.12852	-794.76615	1761.34433	-983.89277	-735.40141	1796.36558	-1035.30556	-567.76829	1706.22374	-961.32697	-517.16002	1678.59793	-919.83658	-512.98007	1665.66693	-951.53503	-834.36948	1477.63937	-475.03037	-844.36334	1472.76263	-672.19363	-825.75915	1485.62019	-481.94541	-827.71428	1483.44216	-657.68953	
98	0.97000000	-660.33699	1033.99101	-370.47475	-705.35162	893.71732	-363.41314	-979.23691	645.98625	-350.32658	-1032.34602	677.35837	-412.65343	-945.74087	497.33424	-334.04228	-894.97686	492.80208	-381.33826	-651.03443	1041.71720	-776.76313	-720.06312	860.49320	-767.12991	-981.93995	702.00134	-763.79155	-1027.36408	732.68319	-693.77760	-999.75689	540.88816	-804.37714	-944.98244	513.86788	-753.90393	-776.23917	804.59152	-362.35632	-758.37866	933.67378	-328.43119	-829.90957	849.42093	-317.92761	-769.34644	918.60406	-811.13920	-855.50043	838.69262	-797.53857	-721.62008	1317.89890	-364.10187	-666.43792	1220.18951	-357.81161	-712.15057	1169.19938	-348.84105	-818.47152	1264.97646	-388.72663	-762.32278	1160.59541	-373.01254	-692.25873	1332.89933	-768.25507	-636.04226	1210.14792	-776.30200	-793.84360	1293.74018	-784.27567	-734.48562	1168.94974	-799.32892	-737.31868	1562.18274	-445.15759	-911.86736	1618.35080	-531.64419	-745.23984	1548.74606	-711.22888	-912.48253	1617.32110	-623.84383	-700.74214	2070.55557	-606.04692	-633.31871	2031.64165	-449.94865	-640.95746	2030.96390	-759.76394	-589.10626	1954.78505	-571.79507	-587.91186	1951.43878	-626.62049	-714.49454	1876.36119	-252.42257	-849.25330	1791.51282	-207.10108	-806.50304	1854.55021	-158.73070	-629.63064	1736.45852	-179.90867	-559.38197	1687.48697	-199.92861	-566.07136	1676.65900	-164.02217	-672.04642	1826.53972	-948.59629	-790.03049	1762.62470	-983.08335	-730.13827	1795.42938	-1035.04786	-564.97823	1697.25426	-964.87851	-515.00622	1666.99600	-924.33828	-511.98569	1654.83657	-956.65757	-828.68040	1479.31189	-474.75502	-837.76963	1474.34996	-671.95981	-819.87624	1486.92679	-481.64094	-821.05146	1484.96176	-657.53414	
99	0.98000000	-643.33354	1041.07958	-366.79701	-686.00435	900.12618	-359.69694	-956.15137	648.40026	-347.73930	-1009.48794	678.07657	-410.98795	-919.48452	500.77569	-330.09851	-867.86824	497.07667	-376.82172	-632.37506	1049.59935	-779.62310	-699.31608	868.02036	-769.79898	-959.90118	707.52497	-765.69249	-1005.03588	737.84063	-694.94601	-977.48063	546.50690	-806.71392	-922.38144	519.55022	-757.21488	-755.50071	809.94349	-358.72469	-740.00022	939.51743	-325.42410	-810.10872	854.00598	-315.16502	-749.20578	925.86368	-813.19395	-834.61696	844.92155	-799.70647	-712.98627	1322.62522	-362.29192	-655.28234	1226.78309	-354.43616	-699.46145	1174.65132	-345.92053	-808.05374	1267.25597	-387.04998	-749.13826	1164.51086	-370.58601	-682.21067	1339.52570	-770.33381	-622.44958	1218.46476	-778.35232	-782.52308	1297.37811	-785.63015	-719.66552	1174.50211	-801.83039	-731.40681	1563.05300	-444.41123	-905.64639	1619.38421	-532.02811	-738.03693	1549.52236	-710.39180	-905.82300	1618.44226	-623.87746	-686.75281	2070.13577	-606.70434	-619.59878	2030.15940	-449.57692	-626.96787	2028.39988	-761.25254	-576.74161	1953.27622	-571.85790	-575.61574	1949.69747	-626.34545	-707.27946	1876.87726	-253.10045	-844.33072	1796.95521	-209.18988	-800.79979	1859.01939	-159.88612	-628.50684	1732.63198	-176.45157	-560.46072	1680.53595	-194.27369	-567.85394	1670.31696	-158.17578	-665.22678	1823.44071	-948.76923	-784.83788	1763.10537	-981.96284	-724.59667	1793.78067	-1034.39499	-562.33611	1687.66938	-967.84391	-513.30133	1655.04710	-928.54167	-511.27082	1643.47129	-961.06120	-822.84086	1480.30582	-474.43385	-830.90379	1475.27532	-671.68131	-813.83076	1487.73277	-481.32746	-814.16822	1485.92962	-657.14596	
100	0.99000000	-627.50573	1047.14666	-362.96834	-667.36463	905.52119	-355.56460	-932.30850	648.24881	-345.49066	-986.09121	675.81901	-409.16031	-891.55205	501.96977	-326.17239	-839.05704	499.52918	-372.39116	-615.10648	1056.38897	-782.52507	-678.74494	873.84102	-772.39408	-937.18579	709.73324	-767.79234	-981.56838	739.75787	-696.37617	-954.67203	548.50215	-808.51511	-898.79388	522.03666	-760.53073	-735.01191	813.79476	-354.88041	-722.58838	944.09229	-322.41829	-790.18235	857.17714	-311.36851	-729.50138	930.98449	-815.72837	-813.57708	848.04101	-801.79996	-704.63634	1326.53389	-360.59765	-644.56371	1232.63001	-351.11671	-687.55741	1179.34685	-343.03397	-797.99692	1268.90719	-385.64887	-736.62419	1167.79664	-368.21253	-672.86101	1344.95487	-772.49241	-609.87774	1225.45136	-780.68144	-772.09278	1299.99728	-786.46456	-706.03647	1179.10013	-804.17235	-725.67948	1563.23281	-443.62109	-899.05839	1619.77994	-532.41260	-730.83009	1549.64633	-709.90211	-898.85197	1618.91440	-623.96267	-672.73439	2068.82070	-607.44159	-605.79070	2027.92025	-449.51146	-612.84083	2025.12672	-762.49189	-564.37228	1950.78506	-571.81182	-563.18733	1947.19274	-625.99600	-699.68160	1876.67270	-254.12409	-839.50998	1801.85875	-211.41917	-794.67151	1862.76114	-161.43598	-627.54594	1728.30069	-173.27484	-561.88453	1672.92501	-189.23979	-569.83088	1664.06468	-152.59183	-658.10092	1819.73432	-948.51648	-779.32210	1762.88005	-979.94445	-718.81078	1791.57187	-1033.24554	-559.67114	1677.80103	-970.29725	-511.83560	1642.81914	-932.61442	-510.65785	1631.69033	-964.93032	-816.98640	1480.60738	-474.24469	-824.00399	1475.58698	-671.53215	-807.85991	1487.84549	-480.98413	-807.46215	1486.18195	-656.98377	
